<svg width="512" height="512" viewBox="0 0 512 512" fill="none" xmlns="http://www.w3.org/2000/svg">
<g clip-path="url(#clip0_2404_109)">
<rect width="512" height="512" fill="white"/>
<circle cx="86.5214" cy="445.535" r="307.053" fill="#C7CAD8"/>
<path d="M390.928 240.104C407.172 233.375 425.424 233.375 441.668 240.104L584.408 299.229C600.652 305.957 613.558 318.863 620.286 335.107L679.411 477.847C686.14 494.091 686.14 512.343 679.411 528.587L620.286 671.327C613.558 687.571 600.652 700.477 584.408 707.206L441.668 766.331C425.424 773.059 407.172 773.059 390.928 766.331L248.188 707.206C231.944 700.477 219.038 687.571 212.309 671.327L153.184 528.587C146.456 512.343 146.456 494.091 153.184 477.847L212.309 335.107C219.038 318.863 231.944 305.957 248.188 299.229L390.928 240.104Z" fill="#DFE2EE"/>
<g filter="url(#filter0_d_2404_109)">
<path d="M227.098 191.736C227.245 190.892 228.023 190.308 228.874 190.403L282.461 196.336C283.361 196.436 284.005 197.249 283.882 198.147C282.457 208.575 274.24 266.724 263.12 304.714C252.263 341.804 231.446 391.732 227.883 400.193C227.576 400.923 226.793 401.297 226.024 401.108L169.975 387.403C168.991 387.162 168.452 386.119 168.865 385.194C173.201 375.478 194.45 327.211 205.096 290.827C216.188 252.916 225.451 201.152 227.098 191.736Z" fill="#354055"/>
<rect x="131.344" y="124.129" width="264.361" height="46.9937" transform="rotate(-3.94126 131.344 124.129)" fill="#354055"/>
<rect x="306.684" y="237.477" width="134.299" height="46.9937" transform="rotate(-58.8611 306.684 237.477)" fill="#354055"/>
<rect x="366.031" y="120.732" width="32.5715" height="46.9937" transform="rotate(-26.9307 366.031 120.732)" fill="#354055"/>
</g>
</g>
<defs>
<filter id="filter0_d_2404_109" x="128.918" y="105.025" width="294.343" height="304.53" filterUnits="userSpaceOnUse" color-interpolation-filters="sRGB">
<feFlood flood-opacity="0" result="BackgroundImageFix"/>
<feColorMatrix in="SourceAlpha" type="matrix" values="0 0 0 0 0 0 0 0 0 0 0 0 0 0 0 0 0 0 127 0" result="hardAlpha"/>
<feOffset dx="2.23953" dy="3.73255"/>
<feGaussianBlur stdDeviation="2.33284"/>
<feComposite in2="hardAlpha" operator="out"/>
<feColorMatrix type="matrix" values="0 0 0 0 0 0 0 0 0 0 0 0 0 0 0 0 0 0 0.25 0"/>
<feBlend mode="normal" in2="BackgroundImageFix" result="effect1_dropShadow_2404_109"/>
<feBlend mode="normal" in="SourceGraphic" in2="effect1_dropShadow_2404_109" result="shape"/>
</filter>
<clipPath id="clip0_2404_109">
<rect width="512" height="512" fill="white"/>
</clipPath>
</defs>
</svg>
