<svg width="512" height="512" viewBox="0 0 512 512" fill="none" xmlns="http://www.w3.org/2000/svg">
<rect width="512" height="512" fill="#354055"/>
<g filter="url(#filter0_dd_2411_181)">
<path d="M217.872 204.654C217.994 203.959 218.634 203.478 219.335 203.556L263.474 208.443C264.216 208.525 264.746 209.195 264.645 209.935C263.472 218.524 256.703 266.421 247.543 297.713C238.601 328.263 221.454 369.389 218.519 376.358C218.266 376.959 217.621 377.267 216.988 377.112L170.821 365.823C170.01 365.625 169.566 364.765 169.906 364.003C173.478 356 190.981 316.243 199.749 286.274C208.886 255.048 216.516 212.41 217.872 204.654Z" fill="#354055"/>
<path d="M139 148.967L356.237 134L358.898 172.617L141.661 187.584L139 148.967Z" fill="#354055"/>
<path d="M283.426 242.33L340.63 147.648L373.761 167.665L316.557 262.347L283.426 242.33Z" fill="#354055"/>
<path d="M332.311 146.169L356.23 134.018L373.762 168.529L349.842 180.68L332.311 146.169Z" fill="#354055"/>
</g>
<defs>
<filter id="filter0_dd_2411_181" x="134" y="124" width="249.762" height="263.152" filterUnits="userSpaceOnUse" color-interpolation-filters="sRGB">
<feFlood flood-opacity="0" result="BackgroundImageFix"/>
<feColorMatrix in="SourceAlpha" type="matrix" values="0 0 0 0 0 0 0 0 0 0 0 0 0 0 0 0 0 0 127 0" result="hardAlpha"/>
<feOffset dx="5" dy="5"/>
<feGaussianBlur stdDeviation="2.5"/>
<feComposite in2="hardAlpha" operator="out"/>
<feColorMatrix type="matrix" values="0 0 0 0 0 0 0 0 0 0 0 0 0 0 0 0 0 0 0.25 0"/>
<feBlend mode="normal" in2="BackgroundImageFix" result="effect1_dropShadow_2411_181"/>
<feColorMatrix in="SourceAlpha" type="matrix" values="0 0 0 0 0 0 0 0 0 0 0 0 0 0 0 0 0 0 127 0" result="hardAlpha"/>
<feOffset dy="-5"/>
<feGaussianBlur stdDeviation="2.5"/>
<feComposite in2="hardAlpha" operator="out"/>
<feColorMatrix type="matrix" values="0 0 0 0 1 0 0 0 0 1 0 0 0 0 1 0 0 0 0.25 0"/>
<feBlend mode="normal" in2="effect1_dropShadow_2411_181" result="effect2_dropShadow_2411_181"/>
<feBlend mode="normal" in="SourceGraphic" in2="effect2_dropShadow_2411_181" result="shape"/>
</filter>
</defs>
</svg>
