<svg width="512" height="512" viewBox="0 0 512 512" fill="none" xmlns="http://www.w3.org/2000/svg">
<rect width="512" height="512" fill="white"/>
<rect x="31" y="118" width="449" height="276.606" rx="52.3676" fill="#D30101"/>
<path d="M223.269 213.729C223.371 213.148 223.906 212.746 224.492 212.811L261.396 216.897C262.017 216.966 262.46 217.526 262.375 218.144C261.394 225.326 255.735 265.372 248.077 291.535C240.6 317.078 226.263 351.463 223.81 357.289C223.598 357.792 223.059 358.05 222.529 357.92L183.929 348.482C183.252 348.316 182.881 347.597 183.165 346.96C186.151 340.269 200.785 307.028 208.116 281.971C215.756 255.863 222.135 220.214 223.269 213.729Z" fill="white"/>
<path d="M157.34 167.403C157.331 167.274 157.429 167.162 157.558 167.153L338.721 154.672C338.85 154.663 338.962 154.76 338.971 154.889L341.163 186.709C341.172 186.838 341.075 186.95 340.946 186.959L159.782 199.441C159.653 199.449 159.541 199.352 159.533 199.223L157.34 167.403Z" fill="white"/>
<path d="M278.278 245.351C278.168 245.284 278.132 245.14 278.199 245.03L325.784 166.267C325.851 166.157 325.995 166.121 326.106 166.188L353.406 182.682C353.516 182.749 353.552 182.892 353.485 183.003L305.9 261.765C305.833 261.876 305.689 261.912 305.578 261.845L278.278 245.351Z" fill="white"/>
<path d="M319.056 165.039C318.997 164.924 319.043 164.783 319.158 164.724L338.74 154.777C338.855 154.718 338.996 154.764 339.054 154.88L353.5 183.316C353.559 183.432 353.513 183.572 353.398 183.631L333.816 193.578C333.701 193.637 333.56 193.591 333.501 193.476L319.056 165.039Z" fill="white"/>
</svg>
