<svg width="512" height="512" viewBox="0 0 512 512" fill="none" xmlns="http://www.w3.org/2000/svg">
<rect width="512" height="512" fill="white"/>
<rect x="43" y="125" width="425" height="261.821" rx="49.5685" fill="url(#paint0_linear_2406_158)"/>
<path d="M224.99 215.612C225.086 215.062 225.593 214.681 226.148 214.743L261.079 218.611C261.667 218.676 262.086 219.206 262.006 219.791C261.077 226.589 255.721 264.495 248.472 289.259C241.395 313.437 227.825 345.984 225.502 351.499C225.302 351.975 224.792 352.218 224.29 352.096L187.753 343.162C187.112 343.005 186.761 342.324 187.03 341.721C189.856 335.388 203.708 303.924 210.648 280.207C217.878 255.494 223.917 221.75 224.99 215.612Z" fill="white"/>
<path d="M162.586 171.762C162.577 171.64 162.669 171.534 162.791 171.526L334.271 159.712C334.393 159.703 334.499 159.795 334.507 159.917L336.583 190.037C336.591 190.159 336.499 190.264 336.377 190.273L164.897 202.087C164.775 202.096 164.669 202.004 164.661 201.881L162.586 171.762Z" fill="white"/>
<path d="M277.059 245.544C276.954 245.48 276.921 245.344 276.984 245.239L322.026 170.687C322.089 170.582 322.225 170.549 322.33 170.612L348.171 186.224C348.276 186.287 348.309 186.424 348.246 186.528L303.204 261.081C303.141 261.185 303.005 261.219 302.9 261.156L277.059 245.544Z" fill="white"/>
<path d="M315.657 169.525C315.601 169.416 315.645 169.282 315.754 169.227L334.289 159.811C334.398 159.756 334.531 159.799 334.587 159.908L348.26 186.825C348.316 186.934 348.272 187.067 348.163 187.123L329.628 196.538C329.519 196.594 329.386 196.55 329.33 196.441L315.657 169.525Z" fill="white"/>
<defs>
<linearGradient id="paint0_linear_2406_158" x1="255.5" y1="125" x2="255.5" y2="386.821" gradientUnits="userSpaceOnUse">
<stop stop-color="#D30101"/>
<stop offset="1" stop-color="#9E0606"/>
</linearGradient>
</defs>
</svg>
